# xmcd
# 
# Track frame offsets:
#     150
#     26849
#     43289
#     66530
#     84654
#     102454
#     129273
#     210787
#     232106
#     267047
#     287038
#     311463
# 
# Disc length: 4410
# 
# Revision: 6
# Processed by: cddbd v1.5.2PL0 Copyright (c) Steve Scherf et al.
# Submitted via: fre:ac v1.0.27
# 
DISCID=ad11380c
DTITLE=AC DC - River plate 2 - Live At River Plate CD2
DYEAR=2012
DGENRE=Rock
TTITLE0=Shoot To Thrill
TTITLE1=War Machine
TTITLE2=Dog Eat Dog
TTITLE3=You Shook Me All Night Long
TTITLE4=T.N.T.
TTITLE5=Whole Lotta Rosie
TTITLE6=Let There Be Rock
TTITLE7=Highway To Hell
TTITLE8=For Those About To Rock (We Salute You)
TTITLE9=Rock N Roll Ain't Noise Pollution (Live At The Circus Krone, June 17, 2003)
TTITLE10=If You Want Blood (You've Got It) (Live At The Circus Krone, June 17, 2003)
TTITLE11=What's Next To The Moon (Live At The Circus Krone, June 17, 2003)
EXTD=
EXTT0=
EXTT1=
EXTT2=
EXTT3=
EXTT4=
EXTT5=
EXTT6=
EXTT7=
EXTT8=
EXTT9=
EXTT10=
EXTT11=
PLAYORDER=
